<svg id="Layer_1" data-name="Layer 1" xmlns="http://www.w3.org/2000/svg" viewBox="0 0 42 40"><g id="Group_6" data-name="Group 6"><g id="Group_3" data-name="Group 3"><g id="Path_6" data-name="Path 6"><path d="M36,7.65C36,9.74,34.83,11,33,11s-3-1.26-3-3.35S31.17,4,33,4,36,5.57,36,7.65Z" style="fill:none"/><path d="M33,9c.48,0,.64-.17.69-.23A1.75,1.75,0,0,0,34,7.65a2.21,2.21,0,0,0-.38-1.35A.74.74,0,0,0,33,6a.71.71,0,0,0-.61.29A2.24,2.24,0,0,0,32,7.65a1.71,1.71,0,0,0,.3,1.11A.85.85,0,0,0,33,9m0,2c-1.82,0-3-1.26-3-3.35S31.17,4,33,4s3,1.57,3,3.65S34.83,11,33,11Z" style="fill:#1d1d24"/></g><g id="Ellipse_1" data-name="Ellipse 1"><circle cx="33" cy="9" r="9" style="fill:none"/><circle cx="33" cy="9" r="8" style="fill:none;stroke:#1d1d24;stroke-linejoin:round;stroke-width:2px"/></g><path id="Path_7" data-name="Path 7" d="M37.85,16C37,13,34.14,13,33,13h0c-1.15,0-4,0-5,3" style="fill:none;stroke:#1d1d24;stroke-linejoin:round;stroke-width:2px"/></g><g id="Group_4" data-name="Group 4"><g id="Path_8" data-name="Path 8"><path d="M36,29.66C36,31.74,34.83,33,33,33s-3-1.26-3-3.34S31.17,26,33,26,36,27.57,36,29.66Z" style="fill:none"/><path d="M33,31c.48,0,.64-.17.69-.23a1.71,1.71,0,0,0,.3-1.11,2.22,2.22,0,0,0-.38-1.36A.74.74,0,0,0,33,28a.71.71,0,0,0-.61.29A2.25,2.25,0,0,0,32,29.66a1.68,1.68,0,0,0,.3,1.1A.91.91,0,0,0,33,31m0,2c-1.82,0-3-1.26-3-3.34S31.17,26,33,26s3,1.57,3,3.66S34.83,33,33,33Z" style="fill:#1d1d24"/></g><g id="Ellipse_2" data-name="Ellipse 2"><circle cx="33" cy="31" r="9" style="fill:none"/><circle cx="33" cy="31" r="8" style="fill:none;stroke:#1d1d24;stroke-linejoin:round;stroke-width:2px"/></g><path id="Path_9" data-name="Path 9" d="M37.85,38C37,35,34.14,35,33,35h0c-1.15,0-4,0-5,3" style="fill:none;stroke:#1d1d24;stroke-linejoin:round;stroke-width:2px"/></g><line id="Line_6" data-name="Line 6" x1="17.44" y1="23.14" x2="25.41" y2="27.88" style="fill:none;stroke:#1d1d24;stroke-linecap:round;stroke-linejoin:round;stroke-width:2px"/><line id="Line_7" data-name="Line 7" x1="25.2" y1="11.94" x2="16.76" y2="17.29" style="fill:none;stroke:#1d1d24;stroke-linecap:round;stroke-linejoin:round;stroke-width:2px"/><g id="Group_5" data-name="Group 5"><g id="Path_10" data-name="Path 10"><path d="M12,18.66C12,20.74,10.83,22,9,22s-3-1.26-3-3.34S7.17,15,9,15,12,16.57,12,18.66Z" style="fill:none"/><path d="M9,20c.48,0,.64-.17.69-.23a1.71,1.71,0,0,0,.3-1.11,2.22,2.22,0,0,0-.38-1.36A.74.74,0,0,0,9,17a.71.71,0,0,0-.61.29A2.25,2.25,0,0,0,8,18.66a1.68,1.68,0,0,0,.3,1.1A.91.91,0,0,0,9,20m0,2c-1.82,0-3-1.26-3-3.34S7.17,15,9,15s3,1.57,3,3.66S10.83,22,9,22Z" style="fill:#1d1d24"/></g><g id="Ellipse_3" data-name="Ellipse 3"><circle cx="9" cy="20" r="9" style="fill:none"/><circle cx="9" cy="20" r="8" style="fill:none;stroke:#1d1d24;stroke-linejoin:round;stroke-width:2px"/></g><path id="Path_11" data-name="Path 11" d="M13.85,27C13,24,10.14,24,9,24H9C7.8,24,5,24,4,27" style="fill:none;stroke:#1d1d24;stroke-linejoin:round;stroke-width:2px"/></g></g></svg>