<svg xmlns="http://www.w3.org/2000/svg" viewBox="0 0 98.79 83.72"><defs><style>.cls-1{fill:none;stroke:#000;stroke-miterlimit:10;stroke-width:3px;}</style></defs><g id="Layer_2" data-name="Layer 2"><line class="cls-1" x1="36.23" y1="25.17" x2="62.77" y2="25.17"/><line class="cls-1" x1="24.23" y1="34.65" x2="74.77" y2="34.65"/><line class="cls-1" x1="36.23" y1="44.14" x2="62.77" y2="44.14"/><polyline class="cls-1" points="17.06 62.48 5.9 62.48 5.9 7.16 93.48 7.16 93.48 62.48 82.32 62.48"/><circle class="cls-1" cx="71.24" cy="62.32" r="7.08"/><polyline class="cls-1" points="76.09 67.12 76.09 77.98 71.17 74.76 66.26 77.98 66.26 67.12"/><circle class="cls-1" cx="49.69" cy="62.32" r="7.08"/><polyline class="cls-1" points="54.54 67.12 54.54 77.98 49.62 74.76 44.7 77.98 44.7 67.12"/><circle class="cls-1" cx="28.14" cy="62.32" r="7.08"/><polyline class="cls-1" points="32.99 67.12 32.99 77.98 28.07 74.76 23.16 77.98 23.16 67.12"/></g></svg>