<svg id="Layer_1" data-name="Layer 1" xmlns="http://www.w3.org/2000/svg" viewBox="0 0 44 43.95"><g id="Group_7" data-name="Group 7"><line id="Line_8" data-name="Line 8" x1="18" y1="26" x2="32.36" y2="11.64" style="fill:none;stroke:#1d1d24;stroke-linecap:round;stroke-linejoin:round;stroke-width:2px"/><path id="Path_12" data-name="Path 12" d="M38.59,12H32V5.41L36,1l1.44,5.56L43,8Z" style="fill:none;stroke:#1d1d24;stroke-linecap:round;stroke-linejoin:round;stroke-width:2px"/><path id="Path_13" data-name="Path 13" d="M20.78,27.72a3.5,3.5,0,1,1-1-3.83" style="fill:none;stroke:#1d1d24;stroke-linecap:round;stroke-linejoin:round;stroke-width:2px"/><path id="Path_14" data-name="Path 14" d="M31.26,17.45A16.48,16.48,0,0,1,18.42,42.92h0A16.48,16.48,0,0,1,1,27.42H1A16.46,16.46,0,0,1,16.53,10h0a16.35,16.35,0,0,1,11.9,4.15" style="fill:none;stroke:#1d1d24;stroke-linecap:round;stroke-linejoin:round;stroke-width:2px"/><path id="Path_15" data-name="Path 15" d="M27,21.91a10.73,10.73,0,0,1,1,3.55,10.51,10.51,0,0,1-9.46,11.45h0A10.51,10.51,0,0,1,7.09,27.45h0A10.5,10.5,0,0,1,16.55,16h0a10.49,10.49,0,0,1,7.62,2.31" style="fill:none;stroke:#1d1d24;stroke-linecap:round;stroke-linejoin:round;stroke-width:2px"/></g></svg>